<svg width="268" height="151" viewBox="0 0 268 151" fill="none" xmlns="http://www.w3.org/2000/svg">
<path d="M182.992 120.107L168.38 94.7974L79.24 63.9174L64.6266 89.2281L182.992 120.107Z" fill="#4C298B"/>
<path d="M132.723 33.0387L108.289 13.6028L100.283 27.4707L147.336 58.3494L132.723 33.0387Z" fill="#AC1C77"/>
<path d="M165.164 89.2281L82.4547 58.3494L97.068 33.0387L150.552 63.9174L165.164 89.2281Z" fill="#B6751E"/>
<path d="M186.208 125.676L200.82 150.985L46.7986 120.107L61.412 94.7974L186.208 125.676Z" fill="#2A4492"/>
<mask id="mask0_1_508" style="mask-type:luminance" maskUnits="userSpaceOnUse" x="100" y="2" width="30" height="26">
<path d="M114.895 2.15997L100.283 27.4706H129.508L114.895 2.15997Z" fill="white"/>
</mask>
<g mask="url(#mask0_1_508)">
<path d="M114.895 2.15997L100.283 27.4706H129.508L114.895 2.15997Z" fill="url(#paint0_linear_1_508)"/>
</g>
<mask id="mask1_1_508" style="mask-type:luminance" maskUnits="userSpaceOnUse" x="82" y="33" width="66" height="26">
<path d="M82.4547 58.3494H147.336L132.723 33.0387H97.068L82.4547 58.3494Z" fill="white"/>
</mask>
<g mask="url(#mask1_1_508)">
<path d="M82.4547 58.3494H147.336L132.723 33.0387H97.068L82.4547 58.3494Z" fill="url(#paint1_linear_1_508)"/>
</g>
<mask id="mask2_1_508" style="mask-type:luminance" maskUnits="userSpaceOnUse" x="64" y="63" width="102" height="27">
<path d="M64.6266 89.2281H165.164L150.552 63.9174H79.24L64.6266 89.2281Z" fill="white"/>
</mask>
<g mask="url(#mask2_1_508)">
<path d="M64.6266 89.2281H165.164L150.552 63.9174H79.24L64.6266 89.2281Z" fill="url(#paint2_linear_1_508)"/>
</g>
<mask id="mask3_1_508" style="mask-type:luminance" maskUnits="userSpaceOnUse" x="46" y="94" width="137" height="27">
<path d="M46.7986 120.107H182.992L168.38 94.7974H61.412L46.7986 120.107Z" fill="white"/>
</mask>
<g mask="url(#mask3_1_508)">
<path d="M46.7986 120.107H182.992L168.38 94.7974H61.412L46.7986 120.107Z" fill="url(#paint3_linear_1_508)"/>
</g>
<mask id="mask4_1_508" style="mask-type:luminance" maskUnits="userSpaceOnUse" x="28" y="125" width="173" height="26">
<path d="M43.584 125.676L28.9706 150.985H200.82L186.208 125.676H43.584Z" fill="white"/>
</mask>
<g mask="url(#mask4_1_508)">
<path d="M43.584 125.676L28.9706 150.985H200.82L186.208 125.676H43.584Z" fill="url(#paint4_linear_1_508)"/>
</g>
<path d="M179.727 72.1521H194.556C194.708 72.1521 194.831 72.0294 194.831 71.8774C194.831 71.7254 194.708 71.6014 194.556 71.6014H179.727C179.575 71.6014 179.451 71.7254 179.451 71.8774C179.451 72.0294 179.575 72.1521 179.727 72.1521Z" fill="#5E369C"/>
<path d="M180.881 67.2555H181.992V67.9102H180.033V64.428H180.881V67.2555ZM183.657 67.9499C183.386 67.9499 183.141 67.8921 182.923 67.7763C182.708 67.6606 182.537 67.4952 182.412 67.2803C182.289 67.0653 182.228 66.814 182.228 66.5263C182.228 66.2419 182.291 65.9922 182.417 65.7772C182.542 65.559 182.714 65.392 182.933 65.2762C183.151 65.1605 183.396 65.1026 183.667 65.1026C183.938 65.1026 184.183 65.1605 184.401 65.2762C184.619 65.392 184.791 65.559 184.917 65.7772C185.042 65.9922 185.105 66.2419 185.105 66.5263C185.105 66.8107 185.041 67.062 184.912 67.2803C184.786 67.4952 184.613 67.6606 184.391 67.7763C184.173 67.8921 183.928 67.9499 183.657 67.9499ZM183.657 67.2158C183.819 67.2158 183.956 67.1563 184.069 67.0372C184.184 66.9182 184.242 66.7478 184.242 66.5263C184.242 66.3047 184.186 66.1344 184.073 66.0153C183.964 65.8963 183.829 65.8368 183.667 65.8368C183.501 65.8368 183.364 65.8963 183.255 66.0153C183.146 66.1311 183.091 66.3014 183.091 66.5263C183.091 66.7478 183.144 66.9182 183.25 67.0372C183.359 67.1563 183.495 67.2158 183.657 67.2158ZM186.8 67.1166L187.401 65.1423H188.303L187.321 67.9102H186.275L185.292 65.1423H186.2L186.8 67.1166ZM191.27 66.4816C191.27 66.561 191.265 66.6437 191.255 66.7297H189.335C189.348 66.9016 189.403 67.0339 189.499 67.1265C189.598 67.2158 189.719 67.2604 189.861 67.2604C190.072 67.2604 190.22 67.1711 190.302 66.9926H191.205C191.159 67.1744 191.075 67.3381 190.952 67.4836C190.833 67.6292 190.683 67.7432 190.501 67.8259C190.319 67.9086 190.115 67.9499 189.891 67.9499C189.619 67.9499 189.378 67.8921 189.166 67.7763C188.955 67.6606 188.789 67.4952 188.67 67.2803C188.551 67.0653 188.492 66.814 188.492 66.5263C188.492 66.2386 188.55 65.9872 188.665 65.7723C188.784 65.5573 188.95 65.392 189.161 65.2762C189.373 65.1605 189.616 65.1026 189.891 65.1026C190.158 65.1026 190.397 65.1588 190.605 65.2713C190.813 65.3837 190.975 65.5441 191.091 65.7524C191.21 65.9608 191.27 66.2038 191.27 66.4816ZM190.402 66.2584C190.402 66.1129 190.352 65.9972 190.253 65.9112C190.154 65.8252 190.03 65.7822 189.881 65.7822C189.738 65.7822 189.618 65.8235 189.519 65.9062C189.423 65.9889 189.363 66.1063 189.34 66.2584H190.402ZM192.6 66.5213C192.6 66.2369 192.653 65.9872 192.758 65.7723C192.868 65.5573 193.015 65.392 193.2 65.2762C193.385 65.1605 193.592 65.1026 193.82 65.1026C194.015 65.1026 194.185 65.1423 194.331 65.2217C194.48 65.301 194.594 65.4052 194.673 65.5342V65.1423H195.521V67.9102H194.673V67.5184C194.59 67.6473 194.475 67.7515 194.326 67.8309C194.18 67.9102 194.01 67.9499 193.815 67.9499C193.59 67.9499 193.385 67.8921 193.2 67.7763C193.015 67.6573 192.868 67.4903 192.758 67.2753C192.653 67.057 192.6 66.8057 192.6 66.5213ZM194.673 66.5263C194.673 66.3146 194.614 66.1476 194.495 66.0253C194.379 65.9029 194.237 65.8417 194.068 65.8417C193.899 65.8417 193.755 65.9029 193.636 66.0253C193.521 66.1443 193.463 66.3097 193.463 66.5213C193.463 66.733 193.521 66.9016 193.636 67.0273C193.755 67.1496 193.899 67.2108 194.068 67.2108C194.237 67.2108 194.379 67.1496 194.495 67.0273C194.614 66.9049 194.673 66.7379 194.673 66.5263ZM197.822 65.1125C198.146 65.1125 198.404 65.2184 198.595 65.43C198.791 65.6383 198.888 65.9261 198.888 66.2931V67.9102H198.045V66.4072C198.045 66.222 197.997 66.0782 197.901 65.9757C197.805 65.8731 197.676 65.8219 197.514 65.8219C197.352 65.8219 197.223 65.8731 197.127 65.9757C197.031 66.0782 196.983 66.222 196.983 66.4072V67.9102H196.135V65.1423H196.983V65.5094C197.069 65.387 197.185 65.2911 197.331 65.2217C197.476 65.1489 197.64 65.1125 197.822 65.1125ZM199.309 66.5213C199.309 66.2369 199.362 65.9872 199.468 65.7723C199.577 65.5573 199.724 65.392 199.909 65.2762C200.094 65.1605 200.301 65.1026 200.529 65.1026C200.711 65.1026 200.876 65.1406 201.025 65.2167C201.177 65.2928 201.296 65.3953 201.382 65.5243V64.2395H202.231V67.9102H201.382V67.5134C201.303 67.6457 201.189 67.7515 201.04 67.8309C200.895 67.9102 200.724 67.9499 200.529 67.9499C200.301 67.9499 200.094 67.8921 199.909 67.7763C199.724 67.6573 199.577 67.4903 199.468 67.2753C199.362 67.057 199.309 66.8057 199.309 66.5213ZM201.382 66.5263C201.382 66.3146 201.323 66.1476 201.204 66.0253C201.088 65.9029 200.946 65.8417 200.777 65.8417C200.609 65.8417 200.465 65.9029 200.346 66.0253C200.23 66.1443 200.172 66.3097 200.172 66.5213C200.172 66.733 200.23 66.9016 200.346 67.0273C200.465 67.1496 200.609 67.2108 200.777 67.2108C200.946 67.2108 201.088 67.1496 201.204 67.0273C201.323 66.9049 201.382 66.7379 201.382 66.5263ZM206.004 66.1245C206.205 66.1675 206.367 66.2683 206.49 66.4271C206.612 66.5825 206.673 66.7611 206.673 66.9628C206.673 67.2538 206.571 67.4853 206.366 67.6573C206.164 67.8259 205.881 67.9102 205.518 67.9102H203.895V64.428H205.463C205.817 64.428 206.093 64.509 206.291 64.6711C206.493 64.8331 206.594 65.053 206.594 65.3308C206.594 65.5358 206.539 65.7061 206.43 65.8417C206.324 65.9773 206.182 66.0716 206.004 66.1245ZM204.744 65.8368H205.299C205.438 65.8368 205.544 65.807 205.617 65.7475C205.693 65.6846 205.731 65.5937 205.731 65.4747C205.731 65.3556 205.693 65.2647 205.617 65.2018C205.544 65.139 205.438 65.1076 205.299 65.1076H204.744V65.8368ZM205.369 67.2257C205.511 67.2257 205.62 67.1943 205.696 67.1315C205.776 67.0653 205.815 66.9711 205.815 66.8487C205.815 66.7263 205.774 66.6304 205.691 66.561C205.612 66.4916 205.501 66.4568 205.359 66.4568H204.744V67.2257H205.369ZM209.775 66.4816C209.775 66.561 209.77 66.6437 209.76 66.7297H207.84C207.853 66.9016 207.908 67.0339 208.004 67.1265C208.103 67.2158 208.224 67.2604 208.366 67.2604C208.577 67.2604 208.725 67.1711 208.807 66.9926H209.71C209.664 67.1744 209.579 67.3381 209.457 67.4836C209.338 67.6292 209.188 67.7432 209.006 67.8259C208.824 67.9086 208.62 67.9499 208.396 67.9499C208.124 67.9499 207.883 67.8921 207.671 67.7763C207.46 67.6606 207.294 67.4952 207.175 67.2803C207.056 67.0653 206.997 66.814 206.997 66.5263C206.997 66.2386 207.055 65.9872 207.17 65.7723C207.289 65.5573 207.455 65.392 207.666 65.2762C207.878 65.1605 208.121 65.1026 208.396 65.1026C208.663 65.1026 208.902 65.1588 209.11 65.2713C209.318 65.3837 209.48 65.5441 209.596 65.7524C209.715 65.9608 209.775 66.2038 209.775 66.4816ZM208.906 66.2584C208.906 66.1129 208.857 65.9972 208.758 65.9112C208.658 65.8252 208.534 65.7822 208.386 65.7822C208.243 65.7822 208.123 65.8235 208.023 65.9062C207.928 65.9889 207.868 66.1063 207.845 66.2584H208.906ZM211.07 64.2395V67.9102H210.222V64.2395H211.07ZM212.945 67.9499C212.674 67.9499 212.429 67.8921 212.211 67.7763C211.996 67.6606 211.826 67.4952 211.7 67.2803C211.578 67.0653 211.516 66.814 211.516 66.5263C211.516 66.2419 211.579 65.9922 211.705 65.7772C211.83 65.559 212.002 65.392 212.221 65.2762C212.439 65.1605 212.684 65.1026 212.955 65.1026C213.226 65.1026 213.471 65.1605 213.689 65.2762C213.907 65.392 214.079 65.559 214.205 65.7772C214.331 65.9922 214.393 66.2419 214.393 66.5263C214.393 66.8107 214.329 67.062 214.2 67.2803C214.074 67.4952 213.901 67.6606 213.679 67.7763C213.461 67.8921 213.216 67.9499 212.945 67.9499ZM212.945 67.2158C213.107 67.2158 213.244 67.1563 213.357 67.0372C213.472 66.9182 213.53 66.7478 213.53 66.5263C213.53 66.3047 213.474 66.1344 213.362 66.0153C213.252 65.8963 213.117 65.8368 212.955 65.8368C212.79 65.8368 212.652 65.8963 212.543 66.0153C212.434 66.1311 212.379 66.3014 212.379 66.5263C212.379 66.7478 212.432 66.9182 212.538 67.0372C212.647 67.1563 212.783 67.2158 212.945 67.2158ZM216.53 65.1125C216.854 65.1125 217.112 65.2184 217.304 65.43C217.499 65.6383 217.596 65.9261 217.596 66.2931V67.9102H216.753V66.4072C216.753 66.222 216.705 66.0782 216.609 65.9757C216.513 65.8731 216.384 65.8219 216.222 65.8219C216.06 65.8219 215.931 65.8731 215.836 65.9757C215.74 66.0782 215.692 66.222 215.692 66.4072V67.9102H214.843V65.1423H215.692V65.5094C215.778 65.387 215.893 65.2911 216.039 65.2217C216.184 65.1489 216.348 65.1125 216.53 65.1125ZM219.238 65.1026C219.433 65.1026 219.603 65.1423 219.748 65.2217C219.897 65.301 220.011 65.4052 220.091 65.5342V65.1423H220.939V67.9053C220.939 68.1599 220.888 68.3898 220.785 68.5948C220.686 68.8031 220.532 68.9685 220.324 69.0908C220.119 69.2132 219.863 69.2744 219.555 69.2744C219.145 69.2744 218.813 69.1768 218.558 68.9817C218.303 68.7899 218.158 68.5287 218.121 68.198H218.96C218.986 68.3038 219.049 68.3865 219.148 68.446C219.247 68.5088 219.37 68.5402 219.515 68.5402C219.691 68.5402 219.83 68.489 219.932 68.3865C220.038 68.2872 220.091 68.1269 220.091 67.9053V67.5134C220.008 67.6424 219.894 67.7482 219.748 67.8309C219.603 67.9102 219.433 67.9499 219.238 67.9499C219.009 67.9499 218.803 67.8921 218.617 67.7763C218.432 67.6573 218.285 67.4903 218.176 67.2753C218.07 67.057 218.017 66.8057 218.017 66.5213C218.017 66.2369 218.07 65.9872 218.176 65.7723C218.285 65.5573 218.432 65.392 218.617 65.2762C218.803 65.1605 219.009 65.1026 219.238 65.1026ZM220.091 66.5263C220.091 66.3146 220.031 66.1476 219.912 66.0253C219.796 65.9029 219.654 65.8417 219.486 65.8417C219.317 65.8417 219.173 65.9029 219.054 66.0253C218.938 66.1443 218.88 66.3097 218.88 66.5213C218.88 66.733 218.938 66.9016 219.054 67.0273C219.173 67.1496 219.317 67.2108 219.486 67.2108C219.654 67.2108 219.796 67.1496 219.912 67.0273C220.031 66.9049 220.091 66.7379 220.091 66.5263ZM221.979 64.8546C221.83 64.8546 221.708 64.8116 221.612 64.7256C221.52 64.6363 221.473 64.5272 221.473 64.3982C221.473 64.2659 221.52 64.1568 221.612 64.0708C221.708 63.9815 221.83 63.9369 221.979 63.9369C222.125 63.9369 222.244 63.9815 222.336 64.0708C222.432 64.1568 222.48 64.2659 222.48 64.3982C222.48 64.5272 222.432 64.6363 222.336 64.7256C222.244 64.8116 222.125 64.8546 221.979 64.8546ZM222.401 65.1423V67.9102H221.553V65.1423H222.401ZM224.702 65.1125C225.026 65.1125 225.284 65.2184 225.476 65.43C225.671 65.6383 225.769 65.9261 225.769 66.2931V67.9102H224.925V66.4072C224.925 66.222 224.877 66.0782 224.782 65.9757C224.686 65.8731 224.557 65.8219 224.395 65.8219C224.233 65.8219 224.104 65.8731 224.008 65.9757C223.912 66.0782 223.864 66.222 223.864 66.4072V67.9102H223.016V65.1423H223.864V65.5094C223.95 65.387 224.066 65.2911 224.211 65.2217C224.357 65.1489 224.52 65.1125 224.702 65.1125ZM227.41 65.1026C227.605 65.1026 227.775 65.1423 227.921 65.2217C228.069 65.301 228.184 65.4052 228.263 65.5342V65.1423H229.111V67.9053C229.111 68.1599 229.06 68.3898 228.957 68.5948C228.858 68.8031 228.704 68.9685 228.496 69.0908C228.291 69.2132 228.035 69.2744 227.727 69.2744C227.317 69.2744 226.985 69.1768 226.73 68.9817C226.476 68.7899 226.33 68.5287 226.294 68.198H227.132C227.158 68.3038 227.221 68.3865 227.32 68.446C227.42 68.5088 227.542 68.5402 227.688 68.5402C227.863 68.5402 228.002 68.489 228.104 68.3865C228.21 68.2872 228.263 68.1269 228.263 67.9053V67.5134C228.18 67.6424 228.066 67.7482 227.921 67.8309C227.775 67.9102 227.605 67.9499 227.41 67.9499C227.182 67.9499 226.975 67.8921 226.79 67.7763C226.604 67.6573 226.457 67.4903 226.348 67.2753C226.242 67.057 226.189 66.8057 226.189 66.5213C226.189 66.2369 226.242 65.9872 226.348 65.7723C226.457 65.5573 226.604 65.392 226.79 65.2762C226.975 65.1605 227.182 65.1026 227.41 65.1026ZM228.263 66.5263C228.263 66.3146 228.203 66.1476 228.084 66.0253C227.969 65.9029 227.826 65.8417 227.658 65.8417C227.489 65.8417 227.345 65.9029 227.226 66.0253C227.11 66.1443 227.053 66.3097 227.053 66.5213C227.053 66.733 227.11 66.9016 227.226 67.0273C227.345 67.1496 227.489 67.2108 227.658 67.2108C227.826 67.2108 227.969 67.1496 228.084 67.0273C228.203 66.9049 228.263 66.7379 228.263 66.5263Z" fill="#784EAC"/>
<path d="M174.455 65.7521H167.369C165.999 65.7521 164.888 66.8627 164.888 68.2321V74.3681C164.887 75.4334 164.025 76.2961 162.96 76.2974H114.895C114.743 76.2974 114.62 76.42 114.62 76.5734C114.62 76.7254 114.743 76.8481 114.895 76.8481H162.96C164.329 76.8481 165.44 75.7387 165.44 74.3681V68.2321C165.441 67.1667 166.303 66.3054 167.369 66.304H174.455C174.607 66.304 174.731 66.1801 174.731 66.0281C174.731 65.8761 174.607 65.7521 174.455 65.7521Z" fill="#4C298B"/>
<path d="M138.799 3.09469H131.713C130.343 3.09469 129.233 4.20401 129.233 5.57468V14.4214C129.231 15.4867 128.369 16.348 127.304 16.3507H114.895C114.743 16.3507 114.62 16.4734 114.62 16.6254C114.62 16.7774 114.743 16.9014 114.895 16.9014H127.304C128.673 16.9014 129.784 15.7907 129.784 14.4214V5.57468C129.785 4.50934 130.648 3.64668 131.713 3.64535H138.799C138.951 3.64535 139.073 3.52137 139.073 3.36937C139.073 3.21737 138.951 3.09469 138.799 3.09469Z" fill="#AC1C77"/>
<path d="M144.028 9.49469H158.857C159.009 9.49469 159.132 9.37068 159.132 9.21868C159.132 9.06668 159.009 8.94267 158.857 8.94267H144.028C143.876 8.94267 143.753 9.06668 143.753 9.21868C143.753 9.37068 143.876 9.49469 144.028 9.49469Z" fill="#CE2187"/>
<path d="M145.595 5.28625C145.341 5.28625 145.113 5.24491 144.911 5.16224C144.709 5.07956 144.547 4.9572 144.425 4.79516C144.306 4.63312 144.243 4.43801 144.236 4.20982H145.139C145.152 4.3388 145.197 4.43801 145.273 4.50745C145.349 4.57359 145.448 4.60666 145.571 4.60666C145.696 4.60666 145.796 4.57855 145.868 4.52234C145.941 4.46281 145.977 4.38179 145.977 4.27927C145.977 4.19329 145.948 4.12219 145.888 4.06597C145.832 4.00975 145.761 3.96345 145.675 3.92708C145.592 3.8907 145.473 3.84936 145.318 3.80307C145.093 3.73362 144.909 3.66417 144.767 3.59473C144.625 3.52528 144.503 3.42276 144.4 3.28718C144.298 3.15159 144.246 2.97467 144.246 2.7564C144.246 2.43232 144.364 2.17934 144.598 1.99745C144.833 1.81226 145.139 1.71966 145.516 1.71966C145.9 1.71966 146.209 1.81226 146.444 1.99745C146.679 2.17934 146.804 2.43397 146.821 2.76136H145.903C145.896 2.64893 145.855 2.56129 145.779 2.49846C145.703 2.43232 145.605 2.39925 145.486 2.39925C145.384 2.39925 145.301 2.42736 145.238 2.48358C145.176 2.53649 145.144 2.6142 145.144 2.71672C145.144 2.82916 145.197 2.91679 145.303 2.97963C145.409 3.04246 145.574 3.11025 145.799 3.18301C146.024 3.25907 146.206 3.33182 146.345 3.40127C146.487 3.47071 146.609 3.57158 146.712 3.70386C146.814 3.83614 146.865 4.00645 146.865 4.21479C146.865 4.4132 146.814 4.59344 146.712 4.75548C146.612 4.91752 146.467 5.04649 146.275 5.1424C146.083 5.2383 145.857 5.28625 145.595 5.28625ZM149.997 3.82291C149.997 3.90228 149.992 3.98495 149.982 4.07093H148.062C148.075 4.24289 148.13 4.37517 148.226 4.46777C148.325 4.55706 148.446 4.6017 148.588 4.6017C148.799 4.6017 148.947 4.51241 149.029 4.33384H149.932C149.886 4.51572 149.801 4.67942 149.679 4.82492C149.56 4.97043 149.41 5.08452 149.228 5.1672C149.046 5.24987 148.842 5.29121 148.618 5.29121C148.346 5.29121 148.105 5.23334 147.893 5.11759C147.682 5.00185 147.516 4.8365 147.397 4.62154C147.278 4.40659 147.219 4.15526 147.219 3.86755C147.219 3.57984 147.277 3.32851 147.392 3.11356C147.511 2.8986 147.677 2.73326 147.888 2.61751C148.1 2.50177 148.343 2.44389 148.618 2.44389C148.885 2.44389 149.124 2.50011 149.332 2.61255C149.54 2.72499 149.702 2.88538 149.818 3.09372C149.937 3.30206 149.997 3.54512 149.997 3.82291ZM149.129 3.59969C149.129 3.45418 149.079 3.33843 148.98 3.25245C148.88 3.16647 148.756 3.12348 148.608 3.12348C148.465 3.12348 148.345 3.16482 148.246 3.24749C148.15 3.33017 148.09 3.44756 148.067 3.59969H149.129ZM151.292 1.58077V5.25153H150.444V1.58077H151.292ZM153.296 3.18797H152.84V5.25153H151.991V3.18797H151.684V2.48358H151.991V2.40421C151.991 2.06359 152.089 1.80565 152.284 1.63038C152.479 1.4518 152.765 1.36251 153.142 1.36251C153.205 1.36251 153.251 1.36416 153.281 1.36747V2.08674C153.119 2.07682 153.005 2.09997 152.939 2.15619C152.873 2.2124 152.84 2.31327 152.84 2.45878V2.48358H153.296V3.18797ZM155.828 3.1582V3.86259H153.645V3.1582H155.828ZM158.74 4.63643H157.44L157.232 5.25153H156.344L157.604 1.76927H158.586L159.846 5.25153H158.948L158.74 4.63643ZM158.522 3.98164L158.09 2.7068L157.663 3.98164H158.522ZM160.061 3.86755C160.061 3.57984 160.119 3.32851 160.234 3.11356C160.353 2.8986 160.517 2.73326 160.725 2.61751C160.937 2.50177 161.179 2.44389 161.45 2.44389C161.797 2.44389 162.086 2.53484 162.318 2.71672C162.553 2.8986 162.706 3.1549 162.779 3.48559H161.876C161.8 3.27395 161.653 3.16812 161.435 3.16812C161.279 3.16812 161.155 3.2293 161.063 3.35166C160.97 3.47071 160.924 3.64268 160.924 3.86755C160.924 4.09243 160.97 4.26604 161.063 4.3884C161.155 4.50745 161.279 4.56698 161.435 4.56698C161.653 4.56698 161.8 4.46116 161.876 4.24951H162.779C162.706 4.57359 162.553 4.82823 162.318 5.01342C162.083 5.19861 161.794 5.29121 161.45 5.29121C161.179 5.29121 160.937 5.23334 160.725 5.11759C160.517 5.00185 160.353 4.8365 160.234 4.62154C160.119 4.40659 160.061 4.15526 160.061 3.86755ZM164.776 4.53226V5.25153H164.344C164.036 5.25153 163.797 5.17712 163.625 5.0283C163.453 4.87618 163.367 4.62981 163.367 4.28919V3.18797H163.029V2.48358H163.367V1.80895H164.215V2.48358H164.771V3.18797H164.215V4.29911C164.215 4.38179 164.235 4.44131 164.275 4.47769C164.314 4.51407 164.38 4.53226 164.473 4.53226H164.776ZM167.981 2.48358V5.25153H167.133V4.87453C167.047 4.99689 166.93 5.0961 166.781 5.17216C166.635 5.24491 166.473 5.28129 166.295 5.28129C166.083 5.28129 165.896 5.23499 165.734 5.1424C165.572 5.04649 165.446 4.90925 165.357 4.73068C165.268 4.5521 165.223 4.3421 165.223 4.10069V2.48358H166.067V3.9866C166.067 4.17179 166.114 4.31565 166.21 4.41817C166.306 4.52068 166.435 4.57194 166.597 4.57194C166.763 4.57194 166.893 4.52068 166.989 4.41817C167.085 4.31565 167.133 4.17179 167.133 3.9866V2.48358H167.981ZM168.422 3.86259C168.422 3.57819 168.475 3.32851 168.581 3.11356C168.69 2.8986 168.837 2.73326 169.022 2.61751C169.207 2.50177 169.414 2.44389 169.642 2.44389C169.837 2.44389 170.008 2.48358 170.153 2.56295C170.302 2.64231 170.416 2.74648 170.495 2.87546V2.48358H171.344V5.25153H170.495V4.85965C170.413 4.98862 170.297 5.09279 170.148 5.17216C170.003 5.25153 169.832 5.29121 169.637 5.29121C169.412 5.29121 169.207 5.23334 169.022 5.11759C168.837 4.99854 168.69 4.83154 168.581 4.61658C168.475 4.39832 168.422 4.14699 168.422 3.86259ZM170.495 3.86755C170.495 3.6559 170.436 3.4889 170.317 3.36654C170.201 3.24418 170.059 3.18301 169.89 3.18301C169.722 3.18301 169.578 3.24418 169.459 3.36654C169.343 3.48559 169.285 3.65094 169.285 3.86259C169.285 4.07424 169.343 4.24289 169.459 4.36856C169.578 4.49092 169.722 4.5521 169.89 4.5521C170.059 4.5521 170.201 4.49092 170.317 4.36856C170.436 4.2462 170.495 4.0792 170.495 3.86755ZM172.806 1.58077V5.25153H171.957V1.58077H172.806ZM173.847 2.19587C173.698 2.19587 173.576 2.15288 173.48 2.0669C173.387 1.97761 173.341 1.86848 173.341 1.73951C173.341 1.60723 173.387 1.4981 173.48 1.41211C173.576 1.32283 173.698 1.27818 173.847 1.27818C173.992 1.27818 174.111 1.32283 174.204 1.41211C174.3 1.4981 174.348 1.60723 174.348 1.73951C174.348 1.86848 174.3 1.97761 174.204 2.0669C174.111 2.15288 173.992 2.19587 173.847 2.19587ZM174.268 2.48358V5.25153H173.42V2.48358H174.268ZM175.677 4.5521H176.877V5.25153H174.729V4.5769L175.88 3.18301H174.739V2.48358H176.852V3.1582L175.677 4.5521ZM177.175 3.86259C177.175 3.57819 177.228 3.32851 177.334 3.11356C177.443 2.8986 177.59 2.73326 177.776 2.61751C177.961 2.50177 178.167 2.44389 178.396 2.44389C178.591 2.44389 178.761 2.48358 178.907 2.56295C179.055 2.64231 179.169 2.74648 179.249 2.87546V2.48358H180.097V5.25153H179.249V4.85965C179.166 4.98862 179.05 5.09279 178.902 5.17216C178.756 5.25153 178.586 5.29121 178.391 5.29121C178.166 5.29121 177.961 5.23334 177.776 5.11759C177.59 4.99854 177.443 4.83154 177.334 4.61658C177.228 4.39832 177.175 4.14699 177.175 3.86259ZM179.249 3.86755C179.249 3.6559 179.189 3.4889 179.07 3.36654C178.955 3.24418 178.812 3.18301 178.644 3.18301C178.475 3.18301 178.331 3.24418 178.212 3.36654C178.096 3.48559 178.039 3.65094 178.039 3.86259C178.039 4.07424 178.096 4.24289 178.212 4.36856C178.331 4.49092 178.475 4.5521 178.644 4.5521C178.812 4.5521 178.955 4.49092 179.07 4.36856C179.189 4.2462 179.249 4.0792 179.249 3.86755ZM182.253 4.53226V5.25153H181.822C181.514 5.25153 181.275 5.17712 181.103 5.0283C180.931 4.87618 180.845 4.62981 180.845 4.28919V3.18797H180.507V2.48358H180.845V1.80895H181.693V2.48358H182.249V3.18797H181.693V4.29911C181.693 4.38179 181.713 4.44131 181.752 4.47769C181.792 4.51407 181.858 4.53226 181.951 4.53226H182.253ZM183.153 2.19587C183.004 2.19587 182.881 2.15288 182.785 2.0669C182.693 1.97761 182.647 1.86848 182.647 1.73951C182.647 1.60723 182.693 1.4981 182.785 1.41211C182.881 1.32283 183.004 1.27818 183.153 1.27818C183.298 1.27818 183.417 1.32283 183.51 1.41211C183.606 1.4981 183.654 1.60723 183.654 1.73951C183.654 1.86848 183.606 1.97761 183.51 2.0669C183.417 2.15288 183.298 2.19587 183.153 2.19587ZM183.574 2.48358V5.25153H182.726V2.48358H183.574ZM185.449 5.29121C185.178 5.29121 184.933 5.23334 184.715 5.11759C184.5 5.00185 184.329 4.8365 184.204 4.62154C184.081 4.40659 184.02 4.15526 184.02 3.86755C184.02 3.58315 184.083 3.33347 184.209 3.11852C184.334 2.90026 184.506 2.73326 184.725 2.61751C184.943 2.50177 185.188 2.44389 185.459 2.44389C185.73 2.44389 185.975 2.50177 186.193 2.61751C186.411 2.73326 186.583 2.90026 186.709 3.11852C186.835 3.33347 186.897 3.58315 186.897 3.86755C186.897 4.15195 186.833 4.40328 186.704 4.62154C186.578 4.8365 186.405 5.00185 186.183 5.11759C185.965 5.23334 185.72 5.29121 185.449 5.29121ZM185.449 4.55706C185.611 4.55706 185.748 4.49753 185.861 4.37848C185.976 4.25943 186.034 4.08912 186.034 3.86755C186.034 3.64598 185.978 3.47567 185.866 3.35662C185.756 3.23757 185.621 3.17805 185.459 3.17805C185.293 3.17805 185.156 3.23757 185.047 3.35662C184.938 3.47237 184.883 3.64268 184.883 3.86755C184.883 4.08912 184.936 4.25943 185.042 4.37848C185.151 4.49753 185.287 4.55706 185.449 4.55706ZM189.034 2.45381C189.358 2.45381 189.616 2.55964 189.808 2.77129C190.003 2.97963 190.1 3.26733 190.1 3.63441V5.25153H189.257V3.7485C189.257 3.56331 189.209 3.41946 189.113 3.31694C189.017 3.21442 188.888 3.16316 188.726 3.16316C188.564 3.16316 188.435 3.21442 188.339 3.31694C188.244 3.41946 188.196 3.56331 188.196 3.7485V5.25153H187.347V2.48358H188.196V2.85065C188.282 2.72829 188.397 2.63239 188.543 2.56295C188.688 2.49019 188.852 2.45381 189.034 2.45381Z" fill="#E23B97"/>
<path d="M215.383 133.231H230.211C230.363 133.231 230.487 133.108 230.487 132.956C230.487 132.804 230.363 132.68 230.211 132.68H215.383C215.231 132.68 215.107 132.804 215.107 132.956C215.107 133.108 215.231 133.231 215.383 133.231Z" fill="#45BD75"/>
<path d="M218.344 126.626C218.344 126.828 218.298 127.013 218.205 127.182C218.113 127.347 217.97 127.481 217.779 127.584C217.587 127.686 217.349 127.738 217.064 127.738H216.538V128.988H215.69V125.505H217.064C217.342 125.505 217.577 125.553 217.769 125.649C217.96 125.745 218.104 125.877 218.2 126.046C218.296 126.215 218.344 126.408 218.344 126.626ZM217 127.063C217.162 127.063 217.282 127.025 217.362 126.949C217.441 126.873 217.481 126.765 217.481 126.626C217.481 126.487 217.441 126.38 217.362 126.304C217.282 126.228 217.162 126.19 217 126.19H216.538V127.063H217ZM220.487 126.19C220.805 126.19 221.059 126.296 221.251 126.507C221.443 126.716 221.539 127.003 221.539 127.37V128.988H220.695V127.485C220.695 127.299 220.647 127.156 220.552 127.053C220.456 126.95 220.327 126.899 220.165 126.899C220.003 126.899 219.874 126.95 219.778 127.053C219.682 127.156 219.634 127.299 219.634 127.485V128.988H218.786V125.317H219.634V126.592C219.72 126.469 219.837 126.372 219.986 126.299C220.135 126.226 220.302 126.19 220.487 126.19ZM224.956 126.22L223.219 130.302H222.307L222.942 128.893L221.816 126.22H222.763L223.403 127.951L224.038 126.22H224.956ZM226.388 129.027C226.147 129.027 225.932 128.986 225.744 128.903C225.555 128.821 225.406 128.708 225.297 128.566C225.188 128.42 225.127 128.258 225.114 128.08H225.952C225.962 128.176 226.006 128.253 226.086 128.313C226.165 128.372 226.263 128.402 226.378 128.402C226.484 128.402 226.565 128.382 226.622 128.343C226.681 128.3 226.711 128.245 226.711 128.179C226.711 128.1 226.669 128.042 226.587 128.005C226.504 127.966 226.37 127.923 226.185 127.876C225.987 127.83 225.821 127.782 225.689 127.733C225.557 127.68 225.443 127.599 225.347 127.49C225.251 127.377 225.203 127.227 225.203 127.038C225.203 126.879 225.246 126.736 225.332 126.607C225.421 126.474 225.55 126.37 225.719 126.294C225.891 126.218 226.094 126.18 226.329 126.18C226.676 126.18 226.949 126.266 227.147 126.438C227.349 126.61 227.465 126.838 227.495 127.122H226.711C226.698 127.027 226.655 126.95 226.582 126.894C226.512 126.838 226.42 126.81 226.304 126.81C226.205 126.81 226.129 126.83 226.076 126.869C226.023 126.906 225.997 126.957 225.997 127.023C225.997 127.103 226.038 127.162 226.121 127.202C226.207 127.241 226.339 127.281 226.517 127.321C226.722 127.374 226.889 127.427 227.018 127.48C227.147 127.529 227.26 127.612 227.356 127.728C227.455 127.84 227.506 127.992 227.509 128.184C227.509 128.346 227.463 128.492 227.371 128.621C227.281 128.746 227.151 128.845 226.979 128.918C226.81 128.991 226.613 129.027 226.388 129.027ZM228.455 125.932C228.306 125.932 228.184 125.889 228.088 125.803C227.995 125.714 227.949 125.605 227.949 125.476C227.949 125.343 227.995 125.234 228.088 125.148C228.184 125.059 228.306 125.014 228.455 125.014C228.601 125.014 228.72 125.059 228.812 125.148C228.908 125.234 228.956 125.343 228.956 125.476C228.956 125.605 228.908 125.714 228.812 125.803C228.72 125.889 228.601 125.932 228.455 125.932ZM228.877 126.22V128.988H228.028V126.22H228.877ZM230.751 129.027C230.48 129.027 230.235 128.969 230.017 128.854C229.802 128.738 229.632 128.573 229.506 128.358C229.384 128.143 229.323 127.891 229.323 127.604C229.323 127.319 229.386 127.07 229.511 126.855C229.637 126.636 229.809 126.469 230.027 126.354C230.245 126.238 230.49 126.18 230.761 126.18C231.032 126.18 231.277 126.238 231.495 126.354C231.714 126.469 231.886 126.636 232.011 126.855C232.137 127.07 232.2 127.319 232.2 127.604C232.2 127.888 232.135 128.139 232.006 128.358C231.881 128.573 231.707 128.738 231.485 128.854C231.267 128.969 231.022 129.027 230.751 129.027ZM230.751 128.293C230.913 128.293 231.051 128.234 231.163 128.115C231.279 127.995 231.337 127.825 231.337 127.604C231.337 127.382 231.28 127.212 231.168 127.093C231.059 126.974 230.923 126.914 230.761 126.914C230.596 126.914 230.459 126.974 230.35 127.093C230.24 127.208 230.186 127.379 230.186 127.604C230.186 127.825 230.239 127.995 230.345 128.115C230.454 128.234 230.589 128.293 230.751 128.293ZM233.498 125.317V128.988H232.65V125.317H233.498ZM235.373 129.027C235.102 129.027 234.857 128.969 234.639 128.854C234.424 128.738 234.253 128.573 234.128 128.358C234.005 128.143 233.944 127.891 233.944 127.604C233.944 127.319 234.007 127.07 234.133 126.855C234.258 126.636 234.43 126.469 234.648 126.354C234.867 126.238 235.111 126.18 235.383 126.18C235.654 126.18 235.899 126.238 236.117 126.354C236.335 126.469 236.507 126.636 236.633 126.855C236.758 127.07 236.821 127.319 236.821 127.604C236.821 127.888 236.757 128.139 236.628 128.358C236.502 128.573 236.328 128.738 236.107 128.854C235.889 128.969 235.644 129.027 235.373 129.027ZM235.373 128.293C235.535 128.293 235.672 128.234 235.784 128.115C235.9 127.995 235.958 127.825 235.958 127.604C235.958 127.382 235.902 127.212 235.789 127.093C235.68 126.974 235.545 126.914 235.383 126.914C235.217 126.914 235.08 126.974 234.971 127.093C234.862 127.208 234.807 127.379 234.807 127.604C234.807 127.825 234.86 127.995 234.966 128.115C235.075 128.234 235.211 128.293 235.373 128.293ZM238.323 126.18C238.518 126.18 238.688 126.22 238.834 126.299C238.983 126.378 239.097 126.483 239.176 126.612V126.22H240.024V128.983C240.024 129.237 239.973 129.467 239.87 129.672C239.771 129.88 239.617 130.046 239.409 130.168C239.204 130.291 238.948 130.352 238.64 130.352C238.23 130.352 237.898 130.254 237.643 130.059C237.389 129.867 237.243 129.606 237.207 129.275H238.045C238.071 129.381 238.134 129.464 238.234 129.523C238.333 129.586 238.455 129.618 238.601 129.618C238.776 129.618 238.915 129.566 239.017 129.464C239.123 129.365 239.176 129.204 239.176 128.983V128.591C239.093 128.72 238.979 128.826 238.834 128.908C238.688 128.988 238.518 129.027 238.323 129.027C238.095 129.027 237.888 128.969 237.703 128.854C237.518 128.735 237.37 128.568 237.261 128.353C237.155 128.134 237.103 127.883 237.103 127.599C237.103 127.314 237.155 127.065 237.261 126.85C237.37 126.635 237.518 126.469 237.703 126.354C237.888 126.238 238.095 126.18 238.323 126.18ZM239.176 127.604C239.176 127.392 239.116 127.225 238.997 127.103C238.882 126.98 238.739 126.919 238.571 126.919C238.402 126.919 238.258 126.98 238.139 127.103C238.024 127.222 237.966 127.387 237.966 127.599C237.966 127.81 238.024 127.979 238.139 128.105C238.258 128.227 238.402 128.288 238.571 128.288C238.739 128.288 238.882 128.227 238.997 128.105C239.116 127.982 239.176 127.815 239.176 127.604ZM241.065 125.932C240.916 125.932 240.793 125.889 240.697 125.803C240.605 125.714 240.559 125.605 240.559 125.476C240.559 125.343 240.605 125.234 240.697 125.148C240.793 125.059 240.916 125.014 241.065 125.014C241.21 125.014 241.329 125.059 241.422 125.148C241.518 125.234 241.566 125.343 241.566 125.476C241.566 125.605 241.518 125.714 241.422 125.803C241.329 125.889 241.21 125.932 241.065 125.932ZM241.486 126.22V128.988H240.638V126.22H241.486ZM241.932 127.604C241.932 127.316 241.99 127.065 242.106 126.85C242.225 126.635 242.389 126.469 242.597 126.354C242.809 126.238 243.05 126.18 243.321 126.18C243.668 126.18 243.958 126.271 244.189 126.453C244.424 126.635 244.578 126.891 244.651 127.222H243.748C243.672 127.01 243.525 126.904 243.306 126.904C243.151 126.904 243.027 126.965 242.934 127.088C242.842 127.207 242.795 127.379 242.795 127.604C242.795 127.828 242.842 128.002 242.934 128.124C243.027 128.244 243.151 128.303 243.306 128.303C243.525 128.303 243.672 128.197 243.748 127.986H244.651C244.578 128.31 244.424 128.564 244.189 128.749C243.954 128.935 243.665 129.027 243.321 129.027C243.05 129.027 242.809 128.969 242.597 128.854C242.389 128.738 242.225 128.573 242.106 128.358C241.99 128.143 241.932 127.891 241.932 127.604ZM244.936 127.599C244.936 127.314 244.989 127.065 245.094 126.85C245.203 126.635 245.351 126.469 245.536 126.354C245.721 126.238 245.928 126.18 246.156 126.18C246.351 126.18 246.521 126.22 246.667 126.299C246.816 126.378 246.93 126.483 247.009 126.612V126.22H247.857V128.988H247.009V128.596C246.926 128.725 246.811 128.829 246.662 128.908C246.516 128.988 246.346 129.027 246.151 129.027C245.926 129.027 245.721 128.969 245.536 128.854C245.351 128.735 245.203 128.568 245.094 128.353C244.989 128.134 244.936 127.883 244.936 127.599ZM247.009 127.604C247.009 127.392 246.95 127.225 246.831 127.103C246.715 126.98 246.573 126.919 246.404 126.919C246.235 126.919 246.091 126.98 245.972 127.103C245.857 127.222 245.799 127.387 245.799 127.599C245.799 127.81 245.857 127.979 245.972 128.105C246.091 128.227 246.235 128.288 246.404 128.288C246.573 128.288 246.715 128.227 246.831 128.105C246.95 127.982 247.009 127.815 247.009 127.604ZM249.319 125.317V128.988H248.471V125.317H249.319ZM254.1 128.988H253.252L251.833 126.84V128.988H250.985V125.505H251.833L253.252 127.663V125.505H254.1V128.988ZM257.324 127.559C257.324 127.638 257.319 127.721 257.31 127.807H255.39C255.403 127.979 255.458 128.111 255.554 128.204C255.653 128.293 255.773 128.338 255.916 128.338C256.127 128.338 256.274 128.248 256.357 128.07H257.26C257.214 128.252 257.129 128.415 257.007 128.561C256.888 128.706 256.737 128.821 256.556 128.903C256.374 128.986 256.17 129.027 255.945 129.027C255.674 129.027 255.433 128.969 255.221 128.854C255.01 128.738 254.844 128.573 254.725 128.358C254.606 128.143 254.547 127.891 254.547 127.604C254.547 127.316 254.604 127.065 254.72 126.85C254.839 126.635 255.005 126.469 255.216 126.354C255.428 126.238 255.671 126.18 255.945 126.18C256.213 126.18 256.451 126.236 256.66 126.349C256.868 126.461 257.03 126.621 257.146 126.83C257.265 127.038 257.324 127.281 257.324 127.559ZM256.456 127.336C256.456 127.19 256.407 127.074 256.308 126.989C256.208 126.903 256.084 126.86 255.935 126.86C255.793 126.86 255.673 126.901 255.573 126.984C255.477 127.066 255.418 127.184 255.395 127.336H256.456ZM260.381 127.559C260.381 127.638 260.376 127.721 260.366 127.807H258.447C258.46 127.979 258.514 128.111 258.61 128.204C258.709 128.293 258.83 128.338 258.972 128.338C259.184 128.338 259.331 128.248 259.414 128.07H260.317C260.27 128.252 260.186 128.415 260.064 128.561C259.945 128.706 259.794 128.821 259.612 128.903C259.43 128.986 259.227 129.027 259.002 129.027C258.731 129.027 258.49 128.969 258.278 128.854C258.066 128.738 257.901 128.573 257.782 128.358C257.663 128.143 257.603 127.891 257.603 127.604C257.603 127.316 257.661 127.065 257.777 126.85C257.896 126.635 258.061 126.469 258.273 126.354C258.485 126.238 258.728 126.18 259.002 126.18C259.27 126.18 259.508 126.236 259.716 126.349C259.925 126.461 260.087 126.621 260.203 126.83C260.322 127.038 260.381 127.281 260.381 127.559ZM259.513 127.336C259.513 127.19 259.463 127.074 259.364 126.989C259.265 126.903 259.141 126.86 258.992 126.86C258.85 126.86 258.729 126.901 258.63 126.984C258.534 127.066 258.475 127.184 258.451 127.336H259.513ZM260.66 127.599C260.66 127.314 260.713 127.065 260.819 126.85C260.928 126.635 261.075 126.469 261.26 126.354C261.445 126.238 261.652 126.18 261.88 126.18C262.062 126.18 262.227 126.218 262.376 126.294C262.528 126.37 262.647 126.473 262.733 126.602V125.317H263.582V128.988H262.733V128.591C262.654 128.723 262.54 128.829 262.391 128.908C262.246 128.988 262.075 129.027 261.88 129.027C261.652 129.027 261.445 128.969 261.26 128.854C261.075 128.735 260.928 128.568 260.819 128.353C260.713 128.134 260.66 127.883 260.66 127.599ZM262.733 127.604C262.733 127.392 262.674 127.225 262.555 127.103C262.439 126.98 262.297 126.919 262.128 126.919C261.96 126.919 261.816 126.98 261.697 127.103C261.581 127.222 261.523 127.387 261.523 127.599C261.523 127.81 261.581 127.979 261.697 128.105C261.816 128.227 261.96 128.288 262.128 128.288C262.297 128.288 262.439 128.227 262.555 128.105C262.674 127.982 262.733 127.815 262.733 127.604ZM265.321 129.027C265.08 129.027 264.865 128.986 264.677 128.903C264.488 128.821 264.339 128.708 264.23 128.566C264.121 128.42 264.06 128.258 264.047 128.08H264.885C264.895 128.176 264.939 128.253 265.019 128.313C265.098 128.372 265.196 128.402 265.311 128.402C265.417 128.402 265.498 128.382 265.555 128.343C265.614 128.3 265.644 128.245 265.644 128.179C265.644 128.1 265.602 128.042 265.52 128.005C265.437 127.966 265.303 127.923 265.118 127.876C264.92 127.83 264.754 127.782 264.622 127.733C264.49 127.68 264.376 127.599 264.28 127.49C264.184 127.377 264.136 127.227 264.136 127.038C264.136 126.879 264.179 126.736 264.265 126.607C264.354 126.474 264.483 126.37 264.652 126.294C264.824 126.218 265.027 126.18 265.262 126.18C265.609 126.18 265.882 126.266 266.08 126.438C266.282 126.61 266.398 126.838 266.428 127.122H265.644C265.631 127.027 265.588 126.95 265.515 126.894C265.445 126.838 265.353 126.81 265.237 126.81C265.138 126.81 265.062 126.83 265.009 126.869C264.956 126.906 264.929 126.957 264.929 127.023C264.929 127.103 264.971 127.162 265.054 127.202C265.139 127.241 265.272 127.281 265.45 127.321C265.655 127.374 265.822 127.427 265.951 127.48C266.08 127.529 266.193 127.612 266.289 127.728C266.388 127.84 266.439 127.992 266.442 128.184C266.442 128.346 266.396 128.492 266.304 128.621C266.214 128.746 266.084 128.845 265.912 128.918C265.743 128.991 265.546 129.027 265.321 129.027Z" fill="#72CD94"/>
<path d="M210.111 126.831H201.772C200.401 126.831 199.292 127.941 199.292 129.311V136.127C199.289 137.192 198.428 138.053 197.363 138.055H114.895C114.743 138.055 114.62 138.179 114.62 138.331C114.62 138.483 114.743 138.607 114.895 138.607H197.363C198.732 138.607 199.843 137.496 199.843 136.127V129.311C199.844 128.247 200.707 127.384 201.772 127.383H210.111C210.263 127.383 210.387 127.259 210.387 127.107C210.387 126.955 210.263 126.831 210.111 126.831Z" fill="#2D9D5C"/>
<path d="M17.408 102.928H32.236C32.388 102.928 32.512 102.804 32.512 102.652C32.512 102.5 32.388 102.377 32.236 102.377H17.408C17.256 102.377 17.132 102.5 17.132 102.652C17.132 102.804 17.256 102.928 17.408 102.928Z" fill="#3F51AB"/>
<path d="M1.56751 99.0347C1.31287 99.0347 1.08469 98.9934 0.882965 98.9107C0.681239 98.828 0.519197 98.7057 0.396838 98.5436C0.277787 98.3816 0.214954 98.1865 0.20834 97.9583H1.11115C1.12438 98.0873 1.16902 98.1865 1.24508 98.2559C1.32114 98.3221 1.42035 98.3551 1.54271 98.3551C1.66837 98.3551 1.76758 98.327 1.84034 98.2708C1.91309 98.2113 1.94947 98.1303 1.94947 98.0277C1.94947 97.9418 1.91971 97.8707 1.86018 97.8144C1.80396 97.7582 1.73286 97.7119 1.64688 97.6756C1.5642 97.6392 1.44515 97.5978 1.28972 97.5515C1.06485 97.4821 0.881312 97.4126 0.739112 97.3432C0.596911 97.2738 0.474553 97.1712 0.372036 97.0356C0.269519 96.9001 0.218261 96.7231 0.218261 96.5049C0.218261 96.1808 0.335659 95.9278 0.570455 95.7459C0.805251 95.5607 1.11115 95.4681 1.48814 95.4681C1.87175 95.4681 2.18096 95.5607 2.41575 95.7459C2.65055 95.9278 2.77622 96.1824 2.79275 96.5098H1.87506C1.86845 96.3974 1.82711 96.3098 1.75105 96.2469C1.67499 96.1808 1.57743 96.1477 1.45838 96.1477C1.35586 96.1477 1.27319 96.1758 1.21036 96.2321C1.14752 96.285 1.11611 96.3627 1.11611 96.4652C1.11611 96.5776 1.16902 96.6653 1.27484 96.7281C1.38067 96.7909 1.54602 96.8587 1.77089 96.9315C1.99577 97.0075 2.17765 97.0803 2.31654 97.1497C2.45874 97.2192 2.5811 97.3201 2.68362 97.4523C2.78614 97.5846 2.83739 97.7549 2.83739 97.9633C2.83739 98.1617 2.78614 98.3419 2.68362 98.504C2.58441 98.666 2.4389 98.795 2.2471 98.8909C2.05529 98.9868 1.82876 99.0347 1.56751 99.0347ZM3.19075 97.6111C3.19075 97.3267 3.24366 97.077 3.34949 96.862C3.45862 96.6471 3.60578 96.4817 3.79097 96.366C3.97616 96.2502 4.18285 96.1924 4.41103 96.1924C4.60614 96.1924 4.77645 96.2321 4.92196 96.3114C5.07077 96.3908 5.18486 96.495 5.26423 96.6239V96.2321H6.11247V99H5.26423V98.6081C5.18156 98.7371 5.06581 98.8413 4.917 98.9206C4.77149 99 4.60118 99.0397 4.40607 99.0397C4.18119 99.0397 3.97616 98.9818 3.79097 98.8661C3.60578 98.747 3.45862 98.58 3.34949 98.3651C3.24366 98.1468 3.19075 97.8955 3.19075 97.6111ZM5.26423 97.616C5.26423 97.4044 5.20471 97.2374 5.08565 97.115C4.96991 96.9927 4.82771 96.9315 4.65905 96.9315C4.4904 96.9315 4.34654 96.9927 4.22749 97.115C4.11175 97.2341 4.05387 97.3994 4.05387 97.6111C4.05387 97.8227 4.11175 97.9914 4.22749 98.117C4.34654 98.2394 4.4904 98.3006 4.65905 98.3006C4.82771 98.3006 4.96991 98.2394 5.08565 98.117C5.20471 97.9947 5.26423 97.8277 5.26423 97.616ZM8.11507 96.9364H7.65871V99H6.81047V96.9364H6.50292V96.2321H6.81047V96.1527C6.81047 95.8121 6.90802 95.5541 7.10314 95.3788C7.29825 95.2003 7.5843 95.111 7.9613 95.111C8.02413 95.111 8.07043 95.1126 8.10019 95.1159V95.8352C7.93815 95.8253 7.82406 95.8484 7.75792 95.9047C7.69178 95.9609 7.65871 96.0617 7.65871 96.2072V96.2321H8.11507V96.9364ZM11.1229 97.5714C11.1229 97.6507 11.1179 97.7334 11.108 97.8194H9.18828C9.20151 97.9914 9.25608 98.1236 9.35198 98.2162C9.45119 98.3055 9.57189 98.3502 9.71409 98.3502C9.92574 98.3502 10.0729 98.2609 10.1556 98.0823H11.0584C11.0121 98.2642 10.9278 98.4279 10.8054 98.5734C10.6863 98.7189 10.5359 98.833 10.354 98.9157C10.1721 98.9983 9.96873 99.0397 9.74386 99.0397C9.47268 99.0397 9.23127 98.9818 9.01963 98.8661C8.80798 98.7503 8.64263 98.585 8.52358 98.37C8.40453 98.1551 8.345 97.9037 8.345 97.616C8.345 97.3283 8.40287 97.077 8.51862 96.862C8.63767 96.6471 8.80302 96.4817 9.01467 96.366C9.22631 96.2502 9.46938 96.1924 9.74386 96.1924C10.0117 96.1924 10.2498 96.2486 10.4582 96.361C10.6665 96.4735 10.8285 96.6339 10.9443 96.8422C11.0633 97.0505 11.1229 97.2936 11.1229 97.5714ZM10.2548 97.3482C10.2548 97.2027 10.2052 97.0869 10.106 97.0009C10.0068 96.9149 9.88275 96.872 9.73394 96.872C9.59173 96.872 9.47103 96.9133 9.37182 96.996C9.27592 97.0786 9.21639 97.196 9.19324 97.3482H10.2548ZM13.1131 98.2807V99H12.6815C12.374 99 12.1342 98.9256 11.9622 98.7768C11.7903 98.6247 11.7043 98.3783 11.7043 98.0377V96.9364H11.367V96.2321H11.7043V95.5574H12.5525V96.2321H13.1081V96.9364H12.5525V98.0476C12.5525 98.1303 12.5724 98.1898 12.6121 98.2262C12.6517 98.2625 12.7179 98.2807 12.8105 98.2807H13.1131ZM16.413 96.2321L14.6769 100.315H13.7641L14.3991 98.9058L13.273 96.2321H14.2205L14.8604 97.9633L15.4953 96.2321H16.413ZM20.8861 99H20.0379L18.6192 96.8521V99H17.771V95.5177H18.6192L20.0379 97.6756V95.5177H20.8861V99ZM24.1102 97.5714C24.1102 97.6507 24.1053 97.7334 24.0953 97.8194H22.1756C22.1889 97.9914 22.2434 98.1236 22.3393 98.2162C22.4385 98.3055 22.5592 98.3502 22.7014 98.3502C22.9131 98.3502 23.0603 98.2609 23.1429 98.0823H24.0457C23.9994 98.2642 23.9151 98.4279 23.7928 98.5734C23.6737 98.7189 23.5232 98.833 23.3413 98.9157C23.1595 98.9983 22.9561 99.0397 22.7312 99.0397C22.46 99.0397 22.2186 98.9818 22.007 98.8661C21.7953 98.7503 21.63 98.585 21.5109 98.37C21.3919 98.1551 21.3324 97.9037 21.3324 97.616C21.3324 97.3283 21.3902 97.077 21.506 96.862C21.625 96.6471 21.7904 96.4817 22.002 96.366C22.2137 96.2502 22.4567 96.1924 22.7312 96.1924C22.9991 96.1924 23.2372 96.2486 23.4455 96.361C23.6539 96.4735 23.8159 96.6339 23.9316 96.8422C24.0507 97.0505 24.1102 97.2936 24.1102 97.5714ZM23.2421 97.3482C23.2421 97.2027 23.1925 97.0869 23.0933 97.0009C22.9941 96.9149 22.8701 96.872 22.7213 96.872C22.5791 96.872 22.4584 96.9133 22.3592 96.996C22.2633 97.0786 22.2037 97.196 22.1806 97.3482H23.2421ZM27.1669 97.5714C27.1669 97.6507 27.162 97.7334 27.152 97.8194H25.2323C25.2456 97.9914 25.3001 98.1236 25.396 98.2162C25.4952 98.3055 25.6159 98.3502 25.7581 98.3502C25.9698 98.3502 26.117 98.2609 26.1996 98.0823H27.1024C27.0561 98.2642 26.9718 98.4279 26.8495 98.5734C26.7304 98.7189 26.5799 98.833 26.398 98.9157C26.2162 98.9983 26.0128 99.0397 25.7879 99.0397C25.5167 99.0397 25.2753 98.9818 25.0637 98.8661C24.852 98.7503 24.6867 98.585 24.5676 98.37C24.4486 98.1551 24.3891 97.9037 24.3891 97.616C24.3891 97.3283 24.4469 97.077 24.5627 96.862C24.6817 96.6471 24.8471 96.4817 25.0587 96.366C25.2704 96.2502 25.5134 96.1924 25.7879 96.1924C26.0558 96.1924 26.2939 96.2486 26.5022 96.361C26.7106 96.4735 26.8726 96.6339 26.9883 96.8422C27.1074 97.0505 27.1669 97.2936 27.1669 97.5714ZM26.2988 97.3482C26.2988 97.2027 26.2492 97.0869 26.15 97.0009C26.0508 96.9149 25.9268 96.872 25.778 96.872C25.6358 96.872 25.5151 96.9133 25.4159 96.996C25.32 97.0786 25.2604 97.196 25.2373 97.3482H26.2988ZM27.4458 97.6111C27.4458 97.3267 27.4987 97.077 27.6045 96.862C27.7136 96.6471 27.8608 96.4817 28.046 96.366C28.2312 96.2502 28.4379 96.1924 28.666 96.1924C28.8479 96.1924 29.0133 96.2304 29.1621 96.3065C29.3142 96.3825 29.4333 96.485 29.5192 96.614V95.3292H30.3675V99H29.5192V98.6032C29.4399 98.7354 29.3258 98.8413 29.177 98.9206C29.0315 99 28.8611 99.0397 28.666 99.0397C28.4379 99.0397 28.2312 98.9818 28.046 98.8661C27.8608 98.747 27.7136 98.58 27.6045 98.3651C27.4987 98.1468 27.4458 97.8955 27.4458 97.6111ZM29.5192 97.616C29.5192 97.4044 29.4597 97.2374 29.3407 97.115C29.2249 96.9927 29.0827 96.9315 28.9141 96.9315C28.7454 96.9315 28.6015 96.9927 28.4825 97.115C28.3668 97.2341 28.3089 97.3994 28.3089 97.6111C28.3089 97.8227 28.3668 97.9914 28.4825 98.117C28.6015 98.2394 28.7454 98.3006 28.9141 98.3006C29.0827 98.3006 29.2249 98.2394 29.3407 98.117C29.4597 97.9947 29.5192 97.8277 29.5192 97.616ZM32.1072 99.0397C31.8658 99.0397 31.6508 98.9983 31.4623 98.9157C31.2738 98.833 31.125 98.7206 31.0159 98.5784C30.9067 98.4329 30.8456 98.2708 30.8323 98.0922H31.6707C31.6806 98.1881 31.7252 98.2658 31.8046 98.3254C31.884 98.3849 31.9815 98.4147 32.0973 98.4147C32.2031 98.4147 32.2841 98.3948 32.3403 98.3551C32.3998 98.3121 32.4296 98.2576 32.4296 98.1914C32.4296 98.1121 32.3883 98.0542 32.3056 98.0178C32.2229 97.9781 32.089 97.9352 31.9038 97.8889C31.7054 97.8426 31.54 97.7946 31.4077 97.745C31.2755 97.6921 31.1614 97.6111 31.0655 97.5019C30.9696 97.3895 30.9216 97.239 30.9216 97.0505C30.9216 96.8918 30.9646 96.7479 31.0506 96.619C31.1399 96.4867 31.2689 96.3825 31.4375 96.3065C31.6095 96.2304 31.8129 96.1924 32.0476 96.1924C32.3949 96.1924 32.6677 96.2783 32.8661 96.4503C33.0679 96.6223 33.1836 96.8505 33.2134 97.1349H32.4296C32.4164 97.039 32.3734 96.9629 32.3006 96.9067C32.2312 96.8505 32.1386 96.8223 32.0228 96.8223C31.9236 96.8223 31.8476 96.8422 31.7947 96.8819C31.7418 96.9183 31.7153 96.9695 31.7153 97.0356C31.7153 97.115 31.7566 97.1745 31.8393 97.2142C31.9253 97.2539 32.0576 97.2936 32.2361 97.3333C32.4412 97.3862 32.6082 97.4391 32.7372 97.492C32.8661 97.5416 32.9786 97.6243 33.0745 97.74C33.1737 97.8525 33.2249 98.0046 33.2282 98.1964C33.2282 98.3584 33.1819 98.504 33.0893 98.6329C33.0001 98.7586 32.8694 98.8578 32.6975 98.9306C32.5288 99.0033 32.332 99.0397 32.1072 99.0397Z" fill="#5660B6"/>
<path d="M37.508 97.0787H44.5947C45.66 97.0814 46.5213 97.9427 46.5227 99.0081V105.248C46.524 106.617 47.6333 107.727 49.0027 107.728H114.895C115.048 107.728 115.171 107.604 115.171 107.452C115.171 107.3 115.048 107.176 114.895 107.176H49.0027C47.9387 107.175 47.076 106.312 47.0747 105.248V99.0081C47.0747 97.6387 45.964 96.5281 44.5947 96.5281H37.508C37.356 96.5281 37.2333 96.6507 37.2333 96.8041C37.2333 96.9561 37.356 97.0787 37.508 97.0787Z" fill="#2A4492"/>
<path d="M53.064 40.7254H67.892C68.0453 40.7254 68.168 40.6027 68.168 40.4494C68.168 40.2974 68.0453 40.1747 67.892 40.1747H53.064C52.912 40.1747 52.788 40.2974 52.788 40.4494C52.788 40.6027 52.912 40.7254 53.064 40.7254Z" fill="#C08B34"/>
<path d="M50.1558 33.1973V33.9017H51.2917V34.5565H50.1558V35.3204H51.4406V36H49.3075V32.5177H51.4406V33.1973H50.1558ZM53.1173 36.0397C52.8759 36.0397 52.6609 35.9983 52.4724 35.9157C52.2839 35.833 52.1351 35.7206 52.026 35.5784C51.9168 35.4329 51.8557 35.2708 51.8424 35.0922H52.6808C52.6907 35.1881 52.7353 35.2658 52.8147 35.3254C52.8941 35.3849 52.9916 35.4147 53.1074 35.4147C53.2132 35.4147 53.2942 35.3948 53.3504 35.3551C53.4099 35.3121 53.4397 35.2576 53.4397 35.1914C53.4397 35.1121 53.3984 35.0542 53.3157 35.0178C53.233 34.9781 53.0991 34.9352 52.9139 34.8889C52.7155 34.8426 52.5501 34.7946 52.4178 34.745C52.2856 34.6921 52.1715 34.6111 52.0756 34.5019C51.9797 34.3895 51.9317 34.239 51.9317 34.0505C51.9317 33.8918 51.9747 33.7479 52.0607 33.619C52.15 33.4867 52.279 33.3825 52.4476 33.3065C52.6196 33.2304 52.823 33.1924 53.0578 33.1924C53.405 33.1924 53.6778 33.2783 53.8762 33.4503C54.078 33.6223 54.1937 33.8505 54.2235 34.1349H53.4397C53.4265 34.039 53.3835 33.9629 53.3107 33.9067C53.2413 33.8505 53.1487 33.8223 53.0329 33.8223C52.9337 33.8223 52.8577 33.8422 52.8048 33.8819C52.7519 33.9183 52.7254 33.9695 52.7254 34.0356C52.7254 34.115 52.7667 34.1745 52.8494 34.2142C52.9354 34.2539 53.0677 34.2936 53.2462 34.3333C53.4513 34.3862 53.6183 34.4391 53.7473 34.492C53.8762 34.5416 53.9887 34.6243 54.0846 34.74C54.1838 34.8525 54.235 35.0046 54.2383 35.1964C54.2383 35.3584 54.192 35.504 54.0995 35.6329C54.0102 35.7586 53.8795 35.8578 53.7076 35.9306C53.5389 36.0033 53.3422 36.0397 53.1173 36.0397ZM56.3 35.2807V36H55.8684C55.5609 36 55.3211 35.9256 55.1492 35.7768C54.9772 35.6247 54.8912 35.3783 54.8912 35.0377V33.9364H54.5539V33.2321H54.8912V32.5574H55.7395V33.2321H56.295V33.9364H55.7395V35.0476C55.7395 35.1303 55.7593 35.1898 55.799 35.2262C55.8387 35.2625 55.9048 35.2807 55.9974 35.2807H56.3ZM59.3817 34.5714C59.3817 34.6507 59.3767 34.7334 59.3668 34.8194H57.4471C57.4603 34.9914 57.5149 35.1236 57.6108 35.2162C57.71 35.3055 57.8307 35.3502 57.9729 35.3502C58.1846 35.3502 58.3317 35.2609 58.4144 35.0823H59.3172C59.2709 35.2642 59.1866 35.4279 59.0642 35.5734C58.9452 35.7189 58.7947 35.833 58.6128 35.9157C58.4309 35.9983 58.2276 36.0397 58.0027 36.0397C57.7315 36.0397 57.4901 35.9818 57.2785 35.8661C57.0668 35.7503 56.9015 35.585 56.7824 35.37C56.6634 35.1551 56.6038 34.9037 56.6038 34.616C56.6038 34.3283 56.6617 34.077 56.7775 33.862C56.8965 33.6471 57.0619 33.4817 57.2735 33.366C57.4851 33.2502 57.7282 33.1924 58.0027 33.1924C58.2706 33.1924 58.5087 33.2486 58.717 33.361C58.9253 33.4735 59.0874 33.6339 59.2031 33.8422C59.3222 34.0505 59.3817 34.2936 59.3817 34.5714ZM58.5136 34.3482C58.5136 34.2027 58.464 34.0869 58.3648 34.0009C58.2656 33.9149 58.1416 33.872 57.9928 33.872C57.8506 33.872 57.7299 33.9133 57.6307 33.996C57.5348 34.0786 57.4752 34.196 57.4521 34.3482H58.5136ZM62.4384 34.5714C62.4384 34.6507 62.4334 34.7334 62.4235 34.8194H60.5038C60.517 34.9914 60.5716 35.1236 60.6675 35.2162C60.7667 35.3055 60.8874 35.3502 61.0296 35.3502C61.2413 35.3502 61.3884 35.2609 61.4711 35.0823H62.3739C62.3276 35.2642 62.2433 35.4279 62.1209 35.5734C62.0019 35.7189 61.8514 35.833 61.6695 35.9157C61.4876 35.9983 61.2843 36.0397 61.0594 36.0397C60.7882 36.0397 60.5468 35.9818 60.3352 35.8661C60.1235 35.7503 59.9582 35.585 59.8391 35.37C59.7201 35.1551 59.6605 34.9037 59.6605 34.616C59.6605 34.3283 59.7184 34.077 59.8342 33.862C59.9532 33.6471 60.1186 33.4817 60.3302 33.366C60.5418 33.2502 60.7849 33.1924 61.0594 33.1924C61.3273 33.1924 61.5654 33.2486 61.7737 33.361C61.982 33.4735 62.1441 33.6339 62.2598 33.8422C62.3789 34.0505 62.4384 34.2936 62.4384 34.5714ZM61.5703 34.3482C61.5703 34.2027 61.5207 34.0869 61.4215 34.0009C61.3223 33.9149 61.1983 33.872 61.0495 33.872C60.9073 33.872 60.7866 33.9133 60.6874 33.996C60.5915 34.0786 60.5319 34.196 60.5088 34.3482H61.5703ZM66.4178 33.2023C66.7617 33.2023 67.0345 33.3065 67.2362 33.5148C67.4413 33.7231 67.5438 34.0125 67.5438 34.3829V36H66.7005V34.497C66.7005 34.3184 66.6526 34.1812 66.5567 34.0853C66.4641 33.986 66.3351 33.9364 66.1697 33.9364C66.0044 33.9364 65.8738 33.986 65.7779 34.0853C65.6853 34.1812 65.639 34.3184 65.639 34.497V36H64.7957V34.497C64.7957 34.3184 64.7477 34.1812 64.6518 34.0853C64.5592 33.986 64.4303 33.9364 64.2649 33.9364C64.0996 33.9364 63.9689 33.986 63.873 34.0853C63.7804 34.1812 63.7341 34.3184 63.7341 34.497V36H62.8859V33.2321H63.7341V33.5793C63.8201 33.4635 63.9326 33.3726 64.0714 33.3065C64.2103 33.237 64.3674 33.2023 64.5427 33.2023C64.751 33.2023 64.9362 33.2469 65.0983 33.3362C65.2636 33.4255 65.3926 33.5528 65.4852 33.7182C65.5811 33.5661 65.7117 33.442 65.8771 33.3461C66.0424 33.2502 66.2226 33.2023 66.4178 33.2023Z" fill="#D9AA56"/>
<path d="M73.1653 34.876H80.2507C81.3147 34.8774 82.1773 35.74 82.1787 36.8054V43.4894C82.1787 44.86 83.2893 45.9694 84.66 45.9694H114.895C115.048 45.9694 115.171 45.8467 115.171 45.6934C115.171 45.5414 115.048 45.4187 114.895 45.4187H84.66C83.5947 45.416 82.732 44.5547 82.7307 43.4894V36.8054C82.7293 35.436 81.62 34.3254 80.2507 34.324H73.1653C73.012 34.324 72.8893 34.4481 72.8893 34.6001C72.8893 34.7521 73.012 34.876 73.1653 34.876Z" fill="#B6751E"/>
<defs>
<linearGradient id="paint0_linear_1_508" x1="114.896" y1="27.4693" x2="114.896" y2="2.15917" gradientUnits="userSpaceOnUse">
<stop stop-color="#CE2187"/>
<stop offset="1" stop-color="#E23B98"/>
</linearGradient>
<linearGradient id="paint1_linear_1_508" x1="114.896" y1="58.3494" x2="114.896" y2="33.0393" gradientUnits="userSpaceOnUse">
<stop stop-color="#C08A34"/>
<stop offset="1" stop-color="#D9AA56"/>
</linearGradient>
<linearGradient id="paint2_linear_1_508" x1="114.896" y1="89.2281" x2="114.896" y2="63.9181" gradientUnits="userSpaceOnUse">
<stop stop-color="#5E369C"/>
<stop offset="1" stop-color="#784EAC"/>
</linearGradient>
<linearGradient id="paint3_linear_1_508" x1="114.896" y1="120.107" x2="114.896" y2="94.7966" gradientUnits="userSpaceOnUse">
<stop stop-color="#4051AC"/>
<stop offset="1" stop-color="#5660B6"/>
</linearGradient>
<linearGradient id="paint4_linear_1_508" x1="28.9706" y1="138.331" x2="200.82" y2="138.331" gradientUnits="userSpaceOnUse">
<stop stop-color="#45BD75"/>
<stop offset="1" stop-color="#72CD94"/>
</linearGradient>
</defs>
</svg>
